# xmcd
#
# Track frame offsets: 
#        150
#        24005
#        40460
#        64144
#        83550
#        106413
#        122531
#        141445
#        160209
#        180810
#
# Disc length: 2671 seconds
#
# Revision: 0
# Processed by: cddbd v1.5.2PL0 Copyright (c) Steve Scherf et al.
# Submitted via: ExactAudioCopyFreeDBPlugin 1.0
#
DISCID=750a6d0a
DTITLE=Gas - Oriental Mood
DYEAR=2008
DGENRE=Blues
TTITLE0=Miss Margot
TTITLE1=Tobacco Road
TTITLE2=Ara
TTITLE3=Human Being
TTITLE4=Under The Moon
TTITLE5=Epouse de Service
TTITLE6=Click On Me baby
TTITLE7=Magic Mountain
TTITLE8=Gugo's Boogie
TTITLE9=Up From The Skies
EXTD=
EXTT0=
EXTT1=
EXTT2=
EXTT3=
EXTT4=
EXTT5=
EXTT6=
EXTT7=
EXTT8=
EXTT9=
PLAYORDER=
